# xmcd CD database file
# Copyright (C) 1993-1996 Ti Kan
#
# Track frame offsets:
#	150
#	13282
#	28142
#	42977
#	57897
#	72180
#	89480
#	105927
#	122757
#	136100
#
# Disc length: 2058 seconds
#
# Revision: 1
# Processed by: cddbd v1.4b41PL1 Copyright (c) Steve Scherf et al.
# Submitted via: CDValet v3.01 - Copyright (c) 1997 Greg Leichner
#
DISCID=8308080a
DTITLE=Neal McCoy - Neal McCoy
DYEAR=1900
DGENRE=
TTITLE0=That woman of mine
TTITLE1=Then you can tell me goodbye
TTITLE2=Me too
TTITLE3=It should've happened that way
TTITLE4=I ain't complainin'
TTITLE5=Going, going, gone
TTITLE6=Betcha can't do that again
TTITLE7=She can
TTITLE8=If it hadn't been so good
TTITLE9=Hillbilly rap
EXTD=
EXTT0=
EXTT1=
EXTT2=
EXTT3=
EXTT4=
EXTT5=
EXTT6=
EXTT7=
EXTT8=
EXTT9=
PLAYORDER=
